<?xml version="1.0" encoding="UTF-8" standalone="no"?>
<!-- Created with FreeCAD (http://free-cad.sourceforge.net) -->
<svg xmlns="http://www.w3.org/2000/svg"
     xmlns:xlink="http://www.w3.org/1999/xlink" xmlns:ev="http://www.w3.org/2001/xml-events"
     version="1.1" baseProfile="full"
     width="277" height="190">
<g>
</g>
<path
   d="M 10,10 L 267,10 L 267,180 L 10,180 L 10,10 z "
   style="fill:#ffffff;fill-opacity:1;fill-rule:evenodd;stroke:none;stroke-width:1px;stroke-linecap:butt;stroke-linejoin:miter;stroke-opacity:1" />
<g>
<line x1="191.805" y1="58.8258" x2="191.805" y2="137.269" stroke="#ffffff" stroke-width="1px" />
<line x1="139.511" y1="58.8258" x2="139.511" y2="137.269" stroke="#ffffff" stroke-width="1px" />
<line x1="104.648" y1="50.1099" x2="200.52" y2="50.1099" stroke="#ffffff" stroke-width="1px" />
<line x1="139.511" y1="58.8258" x2="152.584" y2="60.6632" stroke="#ffffff" stroke-width="1px" />
<line x1="200.52" y1="145.985" x2="104.648" y2="145.985" stroke="#ffffff" stroke-width="1px" />
<line x1="152.584" y1="58.8258" x2="152.584" y2="137.269" stroke="#ffffff" stroke-width="1px" />
<line x1="113.363" y1="137.269" x2="113.363" y2="58.8258" stroke="#ffffff" stroke-width="1px" />
<line x1="152.584" y1="137.269" x2="165.658" y2="135.432" stroke="#ffffff" stroke-width="1px" />
<line x1="126.437" y1="58.8258" x2="126.437" y2="137.269" stroke="#ffffff" stroke-width="1px" />
<line x1="165.658" y1="58.8258" x2="165.658" y2="137.269" stroke="#ffffff" stroke-width="1px" />
<line x1="113.363" y1="58.8258" x2="126.437" y2="60.6632" stroke="#ffffff" stroke-width="1px" />
<line x1="126.437" y1="137.269" x2="139.511" y2="135.432" stroke="#ffffff" stroke-width="1px" />
<line x1="104.648" y1="145.985" x2="104.648" y2="50.1099" stroke="#ffffff" stroke-width="1px" />
<line x1="165.658" y1="58.8258" x2="178.731" y2="60.6632" stroke="#ffffff" stroke-width="1px" />
<line x1="178.731" y1="58.8258" x2="178.731" y2="137.269" stroke="#ffffff" stroke-width="1px" />
<line x1="178.731" y1="137.269" x2="191.805" y2="135.432" stroke="#ffffff" stroke-width="1px" />
<line x1="200.52" y1="50.1099" x2="200.52" y2="145.985" stroke="#ffffff" stroke-width="1px" />
</g>
</svg>