<?xml version="1.0" encoding="UTF-8" standalone="no"?>
<!-- Created with FreeCAD (http://free-cad.sourceforge.net) -->
<svg xmlns="http://www.w3.org/2000/svg"
     xmlns:xlink="http://www.w3.org/1999/xlink" xmlns:ev="http://www.w3.org/2001/xml-events"
     version="1.1" baseProfile="full"
     width="277" height="190">
<g>
</g>
<path
   d="M 10,10 L 267,10 L 267,180 L 10,180 L 10,10 z "
   style="fill:#ffffff;fill-opacity:1;fill-rule:evenodd;stroke:none;stroke-width:1px;stroke-linecap:butt;stroke-linejoin:miter;stroke-opacity:1" />
<g>
<line x1="138.845" y1="123.595" x2="138.845" y2="111.897" stroke="#ffffff" stroke-width="1px" />
<line x1="115.45" y1="146.991" x2="115.45" y2="88.5014" stroke="#ffffff" stroke-width="1px" />
<line x1="95.9536" y1="154.79" x2="181.736" y2="154.79" stroke="#ffffff" stroke-width="1px" />
<line x1="115.45" y1="88.5014" x2="162.24" y2="88.5015" stroke="#ffffff" stroke-width="1px" />
<line x1="181.736" y1="69.0048" x2="95.9536" y2="69.0048" stroke="#ffffff" stroke-width="1px" />
<line x1="162.24" y1="88.5015" x2="162.24" y2="135.293" stroke="#ffffff" stroke-width="1px" />
<line x1="103.752" y1="146.991" x2="103.752" y2="76.8035" stroke="#ffffff" stroke-width="1px" />
<line x1="127.147" y1="135.293" x2="162.24" y2="135.293" stroke="#ffffff" stroke-width="1px" />
<line x1="173.938" y1="76.8035" x2="173.937" y2="146.991" stroke="#ffffff" stroke-width="1px" />
<line x1="127.147" y1="135.293" x2="127.147" y2="100.199" stroke="#ffffff" stroke-width="1px" />
<line x1="103.752" y1="76.8035" x2="173.938" y2="76.8035" stroke="#ffffff" stroke-width="1px" />
<line x1="173.937" y1="146.991" x2="115.45" y2="146.991" stroke="#ffffff" stroke-width="1px" />
<line x1="95.9536" y1="69.0048" x2="95.9536" y2="154.79" stroke="#ffffff" stroke-width="1px" />
<line x1="127.147" y1="100.199" x2="150.542" y2="100.199" stroke="#ffffff" stroke-width="1px" />
<line x1="150.542" y1="123.595" x2="150.542" y2="100.199" stroke="#ffffff" stroke-width="1px" />
<line x1="138.845" y1="123.595" x2="150.542" y2="123.595" stroke="#ffffff" stroke-width="1px" />
<line x1="181.736" y1="154.79" x2="181.736" y2="69.0048" stroke="#ffffff" stroke-width="1px" />
</g>
</svg>